<svg width="279" height="342" viewBox="0 0 279 342" fill="none" xmlns="http://www.w3.org/2000/svg">
<path fill-rule="evenodd" clip-rule="evenodd" d="M93 0H175.179C232.518 0 279 46.4824 279 103.821C279 161.16 232.518 207.643 175.179 207.643H93V202.643H175.179C229.756 202.643 274 158.399 274 103.821C274 49.2438 229.756 5 175.179 5H93V0Z" fill="#C4C4C4"/>
<rect x="93" y="4.6978" width="5" height="132.478" fill="#C4C4C4"/>
<rect x="93" y="185.093" width="5" height="22.5495" fill="#C4C4C4"/>
<path fill-rule="evenodd" clip-rule="evenodd" d="M98 103.512C96.3224 103.605 94.6554 103.737 93 103.909V108.937C94.6547 108.757 96.3218 108.618 98 108.52V103.512ZM103 108.355C103.274 108.353 103.547 108.352 103.821 108.352H186V103.352H103.821C103.547 103.352 103.274 103.353 103 103.355V108.355ZM0 207.173C0 155.213 38.1702 112.169 88 104.549V109.611C40.9434 117.184 5 157.981 5 207.173C5 261.751 49.2439 305.994 103.821 305.994H186V310.994H103.821C46.4825 310.994 0 264.512 0 207.173Z" fill="#C4C4C4"/>
<path d="M118.788 260.244C124.872 260.244 129.732 261.558 133.368 264.186C137.04 266.814 138.876 270.882 138.876 276.39V281.898C138.876 287.514 137.058 291.618 133.422 294.21C129.822 296.766 124.944 298.044 118.788 298.044H101.562C101.166 298.044 100.824 297.9 100.536 297.612C100.248 297.324 100.104 296.982 100.104 296.586V261.702C100.104 261.306 100.248 260.964 100.536 260.676C100.824 260.388 101.166 260.244 101.562 260.244H118.788ZM119.058 287.514C120.75 287.514 122.082 287.118 123.054 286.326C124.062 285.498 124.566 284.346 124.566 282.87V275.418C124.566 273.942 124.062 272.808 123.054 272.016C122.082 271.188 120.75 270.774 119.058 270.774H114.144V287.514H119.058ZM159.861 283.464C159.861 284.94 160.347 286.074 161.319 286.866C162.327 287.658 163.677 288.054 165.369 288.054C166.881 288.054 167.997 287.802 168.717 287.298C169.437 286.794 170.049 286.038 170.553 285.03C171.021 284.094 171.651 283.626 172.443 283.626H184.107C184.431 283.626 184.701 283.752 184.917 284.004C185.169 284.22 185.295 284.49 185.295 284.814C185.295 287.01 184.557 289.17 183.081 291.294C181.605 293.382 179.355 295.128 176.331 296.532C173.343 297.9 169.689 298.584 165.369 298.584C161.517 298.584 158.079 298.008 155.055 296.856C152.067 295.668 149.691 293.868 147.927 291.456C146.163 289.008 145.281 285.966 145.281 282.33V275.958C145.281 272.322 146.163 269.298 147.927 266.886C149.691 264.438 152.067 262.638 155.055 261.486C158.079 260.298 161.517 259.704 165.369 259.704C169.689 259.704 173.343 260.406 176.331 261.81C179.355 263.178 181.605 264.924 183.081 267.048C184.557 269.136 185.295 271.278 185.295 273.474C185.295 273.798 185.169 274.086 184.917 274.338C184.701 274.554 184.431 274.662 184.107 274.662H172.443C171.651 274.662 171.021 274.194 170.553 273.258C170.049 272.25 169.437 271.494 168.717 270.99C167.997 270.486 166.881 270.234 165.369 270.234C163.677 270.234 162.327 270.63 161.319 271.422C160.347 272.214 159.861 273.348 159.861 274.824V283.464Z" fill="#C4C4C4"/>
<path d="M121.232 321.451C122.358 321.451 123.258 321.694 123.932 322.181C124.612 322.667 124.952 323.421 124.952 324.441V325.461C124.952 326.501 124.615 327.261 123.942 327.741C123.275 328.214 122.372 328.451 121.232 328.451H118.042C117.968 328.451 117.905 328.424 117.852 328.371C117.798 328.317 117.772 328.254 117.772 328.181V321.721C117.772 321.647 117.798 321.584 117.852 321.531C117.905 321.477 117.968 321.451 118.042 321.451H121.232ZM121.282 326.501C121.595 326.501 121.842 326.427 122.022 326.281C122.208 326.127 122.302 325.914 122.302 325.641V324.261C122.302 323.987 122.208 323.777 122.022 323.631C121.842 323.477 121.595 323.401 121.282 323.401H120.372V326.501H121.282ZM128.318 328.111C128.231 328.337 128.081 328.451 127.868 328.451H125.978C125.918 328.451 125.864 328.431 125.818 328.391C125.778 328.344 125.758 328.291 125.758 328.231L125.768 328.171L127.948 321.781C127.974 321.694 128.024 321.617 128.098 321.551C128.171 321.484 128.271 321.451 128.398 321.451H131.178C131.304 321.451 131.404 321.484 131.478 321.551C131.551 321.617 131.601 321.694 131.628 321.781L133.808 328.171L133.818 328.231C133.818 328.291 133.794 328.344 133.748 328.391C133.708 328.431 133.658 328.451 133.598 328.451H131.708C131.494 328.451 131.344 328.337 131.258 328.111L131.008 327.411H128.568L128.318 328.111ZM129.788 323.381L129.078 325.461H130.498L129.788 323.381ZM142.224 328.141C142.237 328.167 142.244 328.197 142.244 328.231C142.244 328.291 142.221 328.344 142.174 328.391C142.134 328.431 142.084 328.451 142.024 328.451H139.754C139.661 328.451 139.574 328.427 139.494 328.381C139.421 328.334 139.367 328.274 139.334 328.201L138.454 326.221H137.614V328.181C137.614 328.254 137.587 328.317 137.534 328.371C137.481 328.424 137.417 328.451 137.344 328.451H135.184C135.111 328.451 135.047 328.424 134.994 328.371C134.941 328.317 134.914 328.254 134.914 328.181V321.721C134.914 321.647 134.941 321.584 134.994 321.531C135.047 321.477 135.111 321.451 135.184 321.451H139.074C139.674 321.451 140.197 321.547 140.644 321.741C141.097 321.934 141.444 322.214 141.684 322.581C141.924 322.947 142.044 323.377 142.044 323.871C142.044 324.777 141.694 325.434 140.994 325.841L142.224 328.141ZM138.864 324.371C139.011 324.371 139.124 324.324 139.204 324.231C139.284 324.131 139.324 324.007 139.324 323.861C139.324 323.714 139.284 323.587 139.204 323.481C139.131 323.367 139.017 323.311 138.864 323.311H137.614V324.371H138.864ZM148.11 326.401H149.92C149.993 326.401 150.057 326.427 150.11 326.481C150.163 326.534 150.19 326.597 150.19 326.671V328.181C150.19 328.254 150.163 328.317 150.11 328.371C150.057 328.424 149.993 328.451 149.92 328.451H143.58C143.507 328.451 143.443 328.424 143.39 328.371C143.337 328.317 143.31 328.254 143.31 328.181V326.671C143.31 326.597 143.337 326.534 143.39 326.481C143.443 326.427 143.507 326.401 143.58 326.401H145.41V323.501H143.58C143.507 323.501 143.443 323.474 143.39 323.421C143.337 323.367 143.31 323.304 143.31 323.231V321.721C143.31 321.647 143.337 321.584 143.39 321.531C143.443 321.477 143.507 321.451 143.58 321.451H149.92C149.993 321.451 150.057 321.477 150.11 321.531C150.163 321.584 150.19 321.647 150.19 321.721V323.231C150.19 323.304 150.163 323.367 150.11 323.421C150.057 323.474 149.993 323.501 149.92 323.501H148.11V326.401ZM155.246 328.551C154.126 328.551 153.236 328.307 152.576 327.821C151.923 327.334 151.596 326.574 151.596 325.541V321.721C151.596 321.647 151.623 321.584 151.676 321.531C151.729 321.477 151.793 321.451 151.866 321.451H153.956C154.029 321.451 154.093 321.477 154.146 321.531C154.199 321.584 154.226 321.647 154.226 321.721V325.701C154.226 325.974 154.316 326.184 154.496 326.331C154.683 326.477 154.933 326.551 155.246 326.551C155.559 326.551 155.806 326.477 155.986 326.331C156.173 326.184 156.266 325.974 156.266 325.701V321.721C156.266 321.647 156.293 321.584 156.346 321.531C156.399 321.477 156.463 321.451 156.536 321.451H158.626C158.699 321.451 158.763 321.477 158.816 321.531C158.869 321.584 158.896 321.647 158.896 321.721V325.541C158.896 326.574 158.566 327.334 157.906 327.821C157.253 328.307 156.366 328.551 155.246 328.551ZM164.292 323.991C165.026 324.071 165.612 324.201 166.052 324.381C166.499 324.561 166.822 324.797 167.022 325.091C167.222 325.384 167.322 325.751 167.322 326.191C167.322 326.671 167.166 327.091 166.852 327.451C166.546 327.804 166.119 328.077 165.572 328.271C165.026 328.457 164.402 328.551 163.702 328.551C162.922 328.551 162.262 328.454 161.722 328.261C161.182 328.067 160.779 327.811 160.512 327.491C160.246 327.164 160.112 326.807 160.112 326.421C160.112 326.354 160.132 326.301 160.172 326.261C160.219 326.221 160.276 326.201 160.342 326.201H162.392C162.532 326.201 162.646 326.244 162.732 326.331C162.846 326.437 162.972 326.511 163.112 326.551C163.252 326.584 163.449 326.601 163.702 326.601C164.336 326.601 164.652 326.504 164.652 326.311C164.652 326.231 164.609 326.164 164.522 326.111C164.442 326.051 164.296 326.001 164.082 325.961C163.876 325.914 163.569 325.867 163.162 325.821C162.249 325.714 161.549 325.487 161.062 325.141C160.576 324.787 160.332 324.291 160.332 323.651C160.332 323.197 160.469 322.797 160.742 322.451C161.016 322.104 161.402 321.834 161.902 321.641C162.409 321.447 162.996 321.351 163.662 321.351C164.356 321.351 164.962 321.461 165.482 321.681C166.002 321.894 166.399 322.161 166.672 322.481C166.946 322.801 167.082 323.114 167.082 323.421C167.082 323.487 167.059 323.541 167.012 323.581C166.972 323.621 166.916 323.641 166.842 323.641H164.692C164.579 323.641 164.476 323.601 164.382 323.521C164.309 323.454 164.222 323.401 164.122 323.361C164.022 323.321 163.869 323.301 163.662 323.301C163.216 323.301 162.992 323.394 162.992 323.581C162.992 323.681 163.079 323.761 163.252 323.821C163.426 323.874 163.772 323.931 164.292 323.991ZM124.59 337.751C124.59 338.024 124.68 338.234 124.86 338.381C125.046 338.527 125.296 338.601 125.61 338.601C125.89 338.601 126.096 338.554 126.23 338.461C126.363 338.367 126.476 338.227 126.57 338.041C126.656 337.867 126.773 337.781 126.92 337.781H129.08C129.14 337.781 129.19 337.804 129.23 337.851C129.276 337.891 129.3 337.941 129.3 338.001C129.3 338.407 129.163 338.807 128.89 339.201C128.616 339.587 128.2 339.911 127.64 340.171C127.086 340.424 126.41 340.551 125.61 340.551C124.896 340.551 124.26 340.444 123.7 340.231C123.146 340.011 122.706 339.677 122.38 339.231C122.053 338.777 121.89 338.214 121.89 337.541V336.361C121.89 335.687 122.053 335.127 122.38 334.681C122.706 334.227 123.146 333.894 123.7 333.681C124.26 333.461 124.896 333.351 125.61 333.351C126.41 333.351 127.086 333.481 127.64 333.741C128.2 333.994 128.616 334.317 128.89 334.711C129.163 335.097 129.3 335.494 129.3 335.901C129.3 335.961 129.276 336.014 129.23 336.061C129.19 336.101 129.14 336.121 129.08 336.121H126.92C126.773 336.121 126.656 336.034 126.57 335.861C126.476 335.674 126.363 335.534 126.23 335.441C126.096 335.347 125.89 335.301 125.61 335.301C125.296 335.301 125.046 335.374 124.86 335.521C124.68 335.667 124.59 335.877 124.59 336.151V337.751ZM137.726 337.561C137.726 338.581 137.386 339.334 136.706 339.821C136.033 340.307 135.133 340.551 134.006 340.551C132.879 340.551 131.976 340.307 131.296 339.821C130.623 339.334 130.286 338.574 130.286 337.541V336.361C130.286 335.681 130.446 335.117 130.766 334.671C131.093 334.217 131.536 333.884 132.096 333.671C132.656 333.457 133.293 333.351 134.006 333.351C134.719 333.351 135.353 333.457 135.906 333.671C136.466 333.884 136.909 334.214 137.236 334.661C137.563 335.107 137.726 335.667 137.726 336.341V337.561ZM132.986 337.751C132.986 338.024 133.076 338.234 133.256 338.381C133.443 338.527 133.693 338.601 134.006 338.601C134.319 338.601 134.566 338.527 134.746 338.381C134.933 338.227 135.026 338.014 135.026 337.741V336.161C135.026 335.887 134.933 335.677 134.746 335.531C134.566 335.377 134.319 335.301 134.006 335.301C133.693 335.301 133.443 335.374 133.256 335.521C133.076 335.667 132.986 335.877 132.986 336.151V337.751ZM142.472 333.451C143.599 333.451 144.499 333.694 145.172 334.181C145.852 334.667 146.192 335.421 146.192 336.441V337.461C146.192 338.501 145.855 339.261 145.182 339.741C144.515 340.214 143.612 340.451 142.472 340.451H139.282C139.209 340.451 139.145 340.424 139.092 340.371C139.039 340.317 139.012 340.254 139.012 340.181V333.721C139.012 333.647 139.039 333.584 139.092 333.531C139.145 333.477 139.209 333.451 139.282 333.451H142.472ZM142.522 338.501C142.835 338.501 143.082 338.427 143.262 338.281C143.449 338.127 143.542 337.914 143.542 337.641V336.261C143.542 335.987 143.449 335.777 143.262 335.631C143.082 335.477 142.835 335.401 142.522 335.401H141.612V338.501H142.522ZM154.238 338.501C154.311 338.501 154.375 338.527 154.428 338.581C154.481 338.634 154.508 338.697 154.508 338.771V340.181C154.508 340.254 154.481 340.317 154.428 340.371C154.375 340.424 154.311 340.451 154.238 340.451H147.918C147.845 340.451 147.781 340.424 147.728 340.371C147.675 340.317 147.648 340.254 147.648 340.181V333.721C147.648 333.647 147.675 333.584 147.728 333.531C147.781 333.477 147.845 333.451 147.918 333.451H154.138C154.211 333.451 154.275 333.477 154.328 333.531C154.381 333.584 154.408 333.647 154.408 333.721V335.131C154.408 335.204 154.381 335.267 154.328 335.321C154.275 335.374 154.211 335.401 154.138 335.401H150.248V336.031H153.588C153.661 336.031 153.725 336.057 153.778 336.111C153.831 336.164 153.858 336.227 153.858 336.301V337.601C153.858 337.674 153.831 337.737 153.778 337.791C153.725 337.844 153.661 337.871 153.588 337.871H150.248V338.501H154.238ZM160.044 335.991C160.777 336.071 161.364 336.201 161.804 336.381C162.251 336.561 162.574 336.797 162.774 337.091C162.974 337.384 163.074 337.751 163.074 338.191C163.074 338.671 162.917 339.091 162.604 339.451C162.297 339.804 161.871 340.077 161.324 340.271C160.777 340.457 160.154 340.551 159.454 340.551C158.674 340.551 158.014 340.454 157.474 340.261C156.934 340.067 156.531 339.811 156.264 339.491C155.997 339.164 155.864 338.807 155.864 338.421C155.864 338.354 155.884 338.301 155.924 338.261C155.971 338.221 156.027 338.201 156.094 338.201H158.144C158.284 338.201 158.397 338.244 158.484 338.331C158.597 338.437 158.724 338.511 158.864 338.551C159.004 338.584 159.201 338.601 159.454 338.601C160.087 338.601 160.404 338.504 160.404 338.311C160.404 338.231 160.361 338.164 160.274 338.111C160.194 338.051 160.047 338.001 159.834 337.961C159.627 337.914 159.321 337.867 158.914 337.821C158.001 337.714 157.301 337.487 156.814 337.141C156.327 336.787 156.084 336.291 156.084 335.651C156.084 335.197 156.221 334.797 156.494 334.451C156.767 334.104 157.154 333.834 157.654 333.641C158.161 333.447 158.747 333.351 159.414 333.351C160.107 333.351 160.714 333.461 161.234 333.681C161.754 333.894 162.151 334.161 162.424 334.481C162.697 334.801 162.834 335.114 162.834 335.421C162.834 335.487 162.811 335.541 162.764 335.581C162.724 335.621 162.667 335.641 162.594 335.641H160.444C160.331 335.641 160.227 335.601 160.134 335.521C160.061 335.454 159.974 335.401 159.874 335.361C159.774 335.321 159.621 335.301 159.414 335.301C158.967 335.301 158.744 335.394 158.744 335.581C158.744 335.681 158.831 335.761 159.004 335.821C159.177 335.874 159.524 335.931 160.044 335.991Z" fill="#C4C4C4"/>
</svg>
